<svg width="19" height="23" viewBox="0 0 19 23" fill="none" xmlns="http://www.w3.org/2000/svg">
<g id="usa_a_RI_01">
<g id="_Elements / _usa_a_base">
<g id="stretchable-items">
<rect id="background-stroke" x="1.5" y="1.5" width="16" height="15" fill="white" stroke="#888B8F"/>
</g>
<g id="non-stretchable-items">
<path id="RI" d="M8.77627 5.10008H8.40127V6.45508H7.66627V2.99508H8.74627C9.2096 2.99508 9.55794 3.08174 9.79127 3.25508C10.0246 3.42508 10.1413 3.68341 10.1413 4.03008C10.1413 4.25674 10.0846 4.44341 9.97127 4.59008C9.86127 4.73674 9.6896 4.86174 9.45627 4.96508L10.3513 6.45508H9.51627L8.77627 5.10008ZM8.40127 4.58008H8.78627C8.98294 4.58008 9.13127 4.53674 9.23127 4.45008C9.33127 4.36008 9.38127 4.22008 9.38127 4.03008C9.38127 3.85341 9.32794 3.72508 9.22127 3.64508C9.11794 3.56174 8.9546 3.52008 8.73127 3.52008H8.40127V4.58008ZM11.4726 6.45508H10.7376V2.99508H11.4726V6.45508Z" fill="#888B8F"/>
</g>
</g>
</g>
</svg>
