<svg width="21" height="25" viewBox="0 0 21 25" fill="none" xmlns="http://www.w3.org/2000/svg">
<g id="usa_e_TN_01">
<g id="_Elements / _usa_e_base">
<g id="stretchable-items">
<g id="TN-stretchable">
<rect id="background" x="1" y="7" width="19" height="17" fill="#888B8F"/>
<rect id="shape" x="1.5" y="7.5" width="18" height="9" fill="white" stroke="#888B8F"/>
</g>
</g>
<g id="non-stretchable-items">
<g id="TN-non-stretchable">
<path id="shape02" d="M1.7215 23.5L4.3465 16.5H19.2785L16.6535 23.5H1.7215Z" fill="white" stroke="#888B8F"/>
<path id="TN" d="M10.0746 18.8337H9.19963V21.7188H8.46463V18.8337H7.54463V18.2587H10.1546L10.0746 18.8337ZM13.1405 21.7188H12.1955L11.0955 18.9737C11.1255 19.2104 11.1489 19.4337 11.1655 19.6437C11.1855 19.8504 11.1955 20.0937 11.1955 20.3737V21.7188H10.5305V18.2587H11.4555L12.5755 21.0087C12.5089 20.5621 12.4755 20.1521 12.4755 19.7787V18.2587H13.1405V21.7188Z" fill="#888B8F"/>
</g>
</g>
</g>
</g>
</svg>
