<svg width="19" height="21" viewBox="0 0 19 21" fill="none" xmlns="http://www.w3.org/2000/svg">
<g id="usa_c_AL_01">
<g id="_Elements / _usa_c_base">
<g id="stretchable-items">
<path id="AL" d="M5.08601 19L5.33996 18.1419L5.38195 18L5.33996 17.8581L4.89605 16.3581L4.79007 16H4.4166H3.89956H3.47717L3.40659 16.4165L3.06624 18.4248L1.59663 18.262L1.50048 12.9954L2.45 4H16.0812L17.4904 11.9112L16.5974 16H8H7.5V16.5V18.1842C7.5 18.2032 7.49105 18.2648 7.39219 18.3708C7.29428 18.4757 7.14238 18.5856 6.95204 18.6872C6.76498 18.7871 6.56141 18.868 6.37884 18.9231C6.18716 18.981 6.05372 19 6 19H5.08601Z" fill="white" stroke="#888B8F"/>
</g>
</g>
</g>
</svg>
