<svg width="19" height="23" viewBox="0 0 19 23" fill="none" xmlns="http://www.w3.org/2000/svg">
<g id="usa_a_MT_01">
<g id="_Elements / _usa_a_base">
<g id="stretchable-items">
<rect id="background-stroke" x="1.5" y="1.5" width="16" height="15" fill="white" stroke="#888B8F"/>
</g>
<g id="non-stretchable-items">
<path id="MT" d="M10.0374 6.45508H9.31738L9.24238 5.05008C9.21905 4.63008 9.20738 4.27341 9.20738 3.98008C9.20738 3.82341 9.20905 3.71008 9.21238 3.64008L8.62738 6.08508H7.93238L7.30738 3.63508C7.32072 3.83841 7.32738 4.06674 7.32738 4.32008C7.32738 4.59008 7.32072 4.83841 7.30738 5.06508L7.23238 6.45508H6.51738L6.78738 2.99508H7.72238L8.29238 5.38008L8.82738 2.99508H9.77238L10.0374 6.45508ZM12.7353 3.57008H11.8603V6.45508H11.1253V3.57008H10.2053V2.99508H12.8153L12.7353 3.57008Z" fill="#888B8F"/>
</g>
</g>
</g>
</svg>
