<svg width="21" height="21" viewBox="0 0 21 21" fill="none" xmlns="http://www.w3.org/2000/svg">
<g id="usa_d_KS_01">
<g id="_Elements / _usa_d_base">
<g id="stretchable-items">
<path id="KS" d="M17.8617 8.72372L17.7104 9.05313L17.9764 9.29936C18.6797 9.95034 18.6725 11.0533 17.9767 11.6977L17.7108 11.944L17.8622 12.2733C18.2766 13.175 17.8092 14.1541 16.9361 14.4783L16.5974 14.6041L16.6105 14.9652C16.6472 15.9762 15.8501 16.6662 14.9201 16.633L14.5602 16.6202L14.434 16.9575C14.0812 17.9003 13.1131 18.2423 12.2508 17.8501L11.9238 17.7014L11.6785 17.9639C11.0069 18.6826 9.99074 18.6746 9.32656 17.9642L9.08119 17.7017L8.75418 17.8506C7.88344 18.2469 6.91951 17.8897 6.57084 16.9585L6.44455 16.6213L6.08463 16.6342C5.14695 16.6679 4.35746 15.9646 4.39374 14.9669L4.40688 14.6057L4.06797 14.48C3.18726 14.1533 2.73241 13.1667 3.1416 12.2753L3.29279 11.9459L3.02683 11.6997C2.32119 11.0466 2.32811 9.94796 3.02637 9.30131L3.29234 9.055L3.14094 8.72563C2.72642 7.82386 3.1938 6.84533 4.06695 6.52118L4.40582 6.39538L4.39259 6.03415C4.3556 5.0234 5.15301 4.33325 6.08303 4.36644L6.44295 4.37928L6.56915 4.04197C6.92197 3.09902 7.88974 2.75704 8.75198 3.14923L9.07919 3.29806L9.32448 3.03529C9.99582 2.31615 11.0127 2.32414 11.6767 3.03498L11.922 3.29769L12.2492 3.14877C13.1198 2.75249 14.0836 3.1098 14.4323 4.04095L14.5586 4.37822L14.9185 4.36529C15.8564 4.33159 16.6453 5.03457 16.6094 6.03271L16.5964 6.39378L16.9351 6.51948C17.8105 6.84433 18.2781 7.81719 17.8617 8.72372Z" fill="#FFF9BA" stroke="#888B8F"/>
</g>
</g>
</g>
</svg>
