<svg width="21" height="26" viewBox="0 0 21 26" fill="none" xmlns="http://www.w3.org/2000/svg">
<g id="usa_f_ND_01">
<g id="_Elements / _usa_f_base">
<g id="stretchable-items">
<g id="ND-stretchable">
<rect id="shape" x="1.5" y="2.5" width="18" height="15" fill="white" stroke="#888B8F"/>
<path id="shape_2" d="M1 2V18H2L2.5 8H18L19 18H20V2H1Z" fill="#888B8F"/>
</g>
</g>
<g id="non-stretchable-items">
<path id="ND-non-stretchable" d="M10.1791 7H9.2341L8.1341 4.255C8.1641 4.49167 8.18743 4.715 8.2041 4.925C8.2241 5.13167 8.2341 5.375 8.2341 5.655V7H7.5691V3.54H8.4941L9.6141 6.29C9.54743 5.84333 9.5141 5.43333 9.5141 5.06V3.54H10.1791V7ZM11.8139 3.54C12.3539 3.54 12.7856 3.66333 13.1089 3.91C13.4356 4.15333 13.5989 4.60167 13.5989 5.255C13.5989 5.895 13.4389 6.34667 13.1189 6.61C12.8023 6.87 12.3956 7 11.8989 7H10.9089V3.54H11.8139ZM11.6439 4.08V6.46H11.9439C12.2273 6.46 12.4456 6.37333 12.5989 6.2C12.7556 6.02333 12.8339 5.70833 12.8339 5.255C12.8339 4.94167 12.7939 4.69833 12.7139 4.525C12.6373 4.35167 12.5339 4.235 12.4039 4.175C12.2739 4.11167 12.1156 4.08 11.9289 4.08H11.6439Z" fill="white"/>
</g>
</g>
</g>
</svg>
