<svg width="21" height="26" viewBox="0 0 21 26" fill="none" xmlns="http://www.w3.org/2000/svg">
<g id="usa_f_LA_01">
<g id="_Elements / _usa_f_base">
<g id="stretchable-items">
<path id="LA-stretchable" d="M2.53166 18.4838L2.99911 10.6449L3.00216 10.5938L2.99478 10.5432L2.5 7.14428V2.51758H13.0425V4.41257L12.5519 6.90317L12.4344 7.4998H13.0425H18.4486L18.1483 10.5665L18.1442 10.6081L18.1471 10.6498L18.4981 15.7045L18.1976 18.493L7.58015 18.3343L7.56899 18.3341L7.55783 18.3344L2.53166 18.4838Z" fill="white" stroke="#888B8F"/>
</g>
<g id="non-stretchable-items">
<path id="LA-non-stretchable" d="M5.86318 6.95297H7.23318L7.15318 7.54297H5.12818V4.08297H5.86318V6.95297ZM9.30713 6.76797H8.22213L8.02713 7.54297H7.26213L8.32713 4.08297H9.22213L10.2821 7.54297H9.50213L9.30713 6.76797ZM9.16713 6.22297L8.76213 4.62797L8.36213 6.22297H9.16713Z" fill="#888B8F"/>
</g>
</g>
</g>
</svg>
