<svg width="22" height="25" viewBox="0 0 22 25" fill="none" xmlns="http://www.w3.org/2000/svg">
<g id="usa_NE_01">
<g id="_Elements / _usa_NE_base">
<g id="stretchable-items">
<path id="NE-stretchable" d="M20.4304 7L18.2244 23.8758C18.1993 23.8698 18.1733 23.8636 18.1467 23.8573C17.7436 23.7617 17.1646 23.6347 16.4557 23.5078C15.0396 23.2544 13.0971 23 11 23C8.90294 23 6.96036 23.2544 5.54428 23.5078C4.83539 23.6347 4.25636 23.7617 3.85335 23.8573C3.82666 23.8636 3.80074 23.8698 3.7756 23.8758L1.56961 7H20.4304Z" fill="white" stroke="#888B8F"/>
</g>
<g id="non-stretchable-items">
<path id="NE-non-stretchable" fill-rule="evenodd" clip-rule="evenodd" d="M7.2943 22.9179L7.54888 22.1518L7.49536 21.8599L6.56646 21.1626L6.69961 20.7598L6.53078 20.5464L6.51294 20.1409L6.83447 20.4976L7.85257 20.2057L8.01333 19.6219L8.24545 19.93H8.90635L9.03144 19.4436L9.42495 20.2379L9.70974 20.2826C9.48084 19.7258 9.27901 19.2231 9.33857 18.5705C9.39814 17.918 10.0029 17.2337 10.9942 17.1398C11.9854 17.0459 12.8391 17.7047 12.9226 18.5705C12.9791 19.1567 12.678 19.93 12.3898 20.3029C12.363 20.4678 12.3898 20.7139 12.6075 20.8101C12.8986 20.6157 13.1889 20.3065 13.3826 19.9756C13.6103 19.5865 13.6355 18.9044 13.5819 18.643C14.1365 19.5967 13.6052 20.4678 13.0356 20.94C13.1689 20.98 13.3639 21.042 13.5817 21.1136C13.9546 20.9776 14.1943 20.7459 14.3855 20.3761C14.5933 19.9746 14.5089 19.5469 14.4451 19.2373C14.5483 19.3655 14.7201 19.9051 14.6794 20.3029C14.6469 20.6216 14.4802 20.9795 14.1261 21.2984C14.2176 21.3306 14.3056 21.3621 14.3893 21.3929C14.6422 21.3087 14.9879 20.9943 15.0821 20.7834C15.1824 20.5584 15.1356 19.926 15.1356 19.926L15.4869 20.2663C15.4869 20.2663 15.5061 20.77 15.4229 21.0763C15.3247 21.4379 14.9751 21.9248 14.9751 21.9248L14.8469 23.1678L7.2943 22.9179ZM8.0813 20.9686L8.40388 21.7536L8.70829 22.6166L9.70136 22.4841L9.40518 21.8917L8.70829 21.6652L8.0813 20.9686ZM10.3808 21.1325L9.61425 20.9688L9.17869 21.3339H9.61425L10.3808 22.4841L10.7507 22.2681L10.675 21.5413L10.3808 21.1325ZM11.0885 20.0835C11.5987 20.0835 12.0123 19.6357 12.0123 19.0832C12.0123 18.5307 11.5987 18.0829 11.0885 18.0829C10.5784 18.0829 10.1648 18.5307 10.1648 19.0832C10.1648 19.6357 10.5784 20.0835 11.0885 20.0835ZM13.0949 22.0177C13.095 21.7306 12.8539 21.4981 12.6311 21.4558C12.3204 21.3968 12.1446 21.5192 12.0755 21.7994C12.0011 22.1009 12.2748 22.4014 12.6308 22.4784C12.9395 22.5452 13.0948 22.3048 13.0949 22.0177ZM14.0652 21.8299C14.2444 21.8639 14.4382 22.0509 14.4382 22.2817C14.4381 22.5125 14.3133 22.7059 14.065 22.6522C13.7788 22.5903 13.5587 22.3486 13.6185 22.1062C13.6741 21.8809 13.8155 21.7825 14.0652 21.8299Z" fill="#888B8F"/>
</g>
</g>
</g>
</svg>
